<svg width="274" height="58" viewBox="0 0 274 58" fill="none" xmlns="http://www.w3.org/2000/svg">
<g filter="url(#filter0_di_2002_2)">
<rect x="4" y="4" width="266" height="50" fill="url(#paint0_radial_2002_2)"/>
<rect x="4" y="4" width="266" height="50" fill="black"/>
<rect x="4.5" y="4.5" width="265" height="49" stroke="#976C3F"/>
<path d="M27.9105 15.6717C26.602 16.4483 24.0253 19.4086 24 20.1853V21.475C24 23.1024 25.5232 24.5394 26.9048 24.5394C28.5648 24.5394 29.952 23.1615 29.952 21.5256C29.952 23.1615 31.2839 24.5394 32.9486 24.5394C34.6086 24.5394 35.9021 23.1615 35.9021 21.5256C35.9021 23.1615 37.3231 24.5394 38.9831 24.5394H39.0131C40.6778 24.5394 42.0979 23.1615 42.0979 21.5256C42.0979 23.1615 43.3923 24.5394 45.0523 24.5394C46.7123 24.5394 48.0489 23.1615 48.0489 21.5256C48.0489 23.1615 49.4315 24.5394 51.0905 24.5394C52.4768 24.5394 54 23.1024 54 21.475V20.1853C53.97 19.4086 51.398 16.4483 50.0848 15.6717C46.0177 15.5253 43.2011 15.5 39.0028 15.5C34.7999 15.5047 29.0737 15.5685 27.9161 15.6717H27.9105ZM35.8825 23.7702C35.7224 24.0451 35.5252 24.2967 35.2966 24.5178V24.5225C34.6445 25.1577 33.7706 25.5133 32.8605 25.514C31.9491 25.5148 31.074 25.1567 30.4244 24.5169C30.202 24.2996 30.0125 24.0509 29.862 23.7787C29.7055 24.0573 29.4871 24.2965 29.2575 24.5169C28.6079 25.1567 27.7328 25.5148 26.8213 25.514H26.8167C26.7046 25.5091 26.5941 25.486 26.4895 25.4455C26.3755 26.6735 26.3054 27.9053 26.2796 29.1384V29.143C26.2749 29.6374 26.2749 30.0369 26.2693 30.5988C26.2993 33.5206 25.9815 40.0622 27.559 41.6699C29.9998 42.2364 34.4915 42.4953 38.9916 42.5H38.9962C43.502 42.4953 47.988 42.2364 50.4288 41.6699C52.0063 40.0631 51.6886 33.5206 51.7186 30.5988C51.7139 30.0369 51.7139 29.6374 51.7082 29.143V29.1384C51.6849 27.9052 51.6149 26.6733 51.4983 25.4455C51.3942 25.4877 51.2834 25.5109 51.1712 25.514H51.1665C50.2551 25.5148 49.3799 25.1567 48.7304 24.5169H48.735C48.5054 24.2965 48.2861 24.0582 48.1305 23.7787H48.1258C47.9767 24.0506 47.7889 24.2993 47.5681 24.5169C46.9179 25.1556 46.0431 25.5135 45.132 25.5135C44.2208 25.5135 43.3461 25.1556 42.6959 24.5169C42.4704 24.2988 42.2764 24.0504 42.1194 23.7787L42.1091 23.7637C41.9479 24.0526 41.7529 24.3011 41.5326 24.5169C40.8831 25.1567 40.008 25.5148 39.0965 25.514H39.0919C39.0619 25.5146 39.0294 25.513 38.9944 25.5093C38.9606 25.513 38.9266 25.5146 38.8922 25.514H38.8875C37.9781 25.5134 37.1052 25.1553 36.457 24.5169C36.2316 24.3002 36.0393 24.0514 35.8862 23.7787L35.8759 23.7637L35.8825 23.7702ZM33.3779 27.0101C34.3687 27.0147 35.2479 27.0101 36.3408 28.2022C37.1994 28.115 38.0983 28.0709 38.9962 28.0709C39.8942 28.0709 40.7931 28.115 41.6517 28.2022C42.7455 27.0101 43.6238 27.0101 44.6146 27.0101H44.6193C45.0879 27.0101 46.9626 27.0101 48.2664 30.6795L49.6677 35.7155C50.7072 39.4628 49.3349 39.5566 47.6271 39.5566C45.0889 39.4628 43.6829 37.6168 43.6829 35.7699C42.2769 36.0054 40.6356 36.1179 38.9962 36.1179C37.3569 36.1179 35.7156 36.0054 34.3143 35.7699C34.3143 37.6168 32.9083 39.4628 30.3701 39.5566C28.6566 39.5519 27.2844 39.4628 28.3239 35.7155L29.7252 30.6795C31.0337 27.0101 32.9083 27.0101 33.377 27.0101H33.3779ZM38.9972 29.8972C38.9925 29.8972 36.3268 32.3547 35.844 33.2242L37.5912 33.1558V34.68C37.5912 34.7541 38.2951 34.7241 38.9972 34.6903C39.6992 34.7241 40.3985 34.7541 40.3985 34.68V33.1558L42.1503 33.2242C41.6676 32.3547 38.9972 29.8972 38.9972 29.8972Z" fill="#CCAB6E"/>
<path d="M27.9105 15.6717C26.602 16.4483 24.0253 19.4086 24 20.1853V21.475C24 23.1024 25.5232 24.5394 26.9048 24.5394C28.5648 24.5394 29.952 23.1615 29.952 21.5256C29.952 23.1615 31.2839 24.5394 32.9486 24.5394C34.6086 24.5394 35.9021 23.1615 35.9021 21.5256C35.9021 23.1615 37.3231 24.5394 38.9831 24.5394H39.0131C40.6778 24.5394 42.0979 23.1615 42.0979 21.5256C42.0979 23.1615 43.3923 24.5394 45.0523 24.5394C46.7123 24.5394 48.0489 23.1615 48.0489 21.5256C48.0489 23.1615 49.4315 24.5394 51.0905 24.5394C52.4768 24.5394 54 23.1024 54 21.475V20.1853C53.97 19.4086 51.398 16.4483 50.0848 15.6717C46.0177 15.5253 43.2011 15.5 39.0028 15.5C34.7999 15.5047 29.0737 15.5685 27.9161 15.6717H27.9105ZM35.8825 23.7702C35.7224 24.0451 35.5252 24.2967 35.2966 24.5178V24.5225C34.6445 25.1577 33.7706 25.5133 32.8605 25.514C31.9491 25.5148 31.074 25.1567 30.4244 24.5169C30.202 24.2996 30.0125 24.0509 29.862 23.7787C29.7055 24.0573 29.4871 24.2965 29.2575 24.5169C28.6079 25.1567 27.7328 25.5148 26.8213 25.514H26.8167C26.7046 25.5091 26.5941 25.486 26.4895 25.4455C26.3755 26.6735 26.3054 27.9053 26.2796 29.1384V29.143C26.2749 29.6374 26.2749 30.0369 26.2693 30.5988C26.2993 33.5206 25.9815 40.0622 27.559 41.6699C29.9998 42.2364 34.4915 42.4953 38.9916 42.5H38.9962C43.502 42.4953 47.988 42.2364 50.4288 41.6699C52.0063 40.0631 51.6886 33.5206 51.7186 30.5988C51.7139 30.0369 51.7139 29.6374 51.7082 29.143V29.1384C51.6849 27.9052 51.6149 26.6733 51.4983 25.4455C51.3942 25.4877 51.2834 25.5109 51.1712 25.514H51.1665C50.2551 25.5148 49.3799 25.1567 48.7304 24.5169H48.735C48.5054 24.2965 48.2861 24.0582 48.1305 23.7787H48.1258C47.9767 24.0506 47.7889 24.2993 47.5681 24.5169C46.9179 25.1556 46.0431 25.5135 45.132 25.5135C44.2208 25.5135 43.3461 25.1556 42.6959 24.5169C42.4704 24.2988 42.2764 24.0504 42.1194 23.7787L42.1091 23.7637C41.9479 24.0526 41.7529 24.3011 41.5326 24.5169C40.8831 25.1567 40.008 25.5148 39.0965 25.514H39.0919C39.0619 25.5146 39.0294 25.513 38.9944 25.5093C38.9606 25.513 38.9266 25.5146 38.8922 25.514H38.8875C37.9781 25.5134 37.1052 25.1553 36.457 24.5169C36.2316 24.3002 36.0393 24.0514 35.8862 23.7787L35.8759 23.7637L35.8825 23.7702ZM33.3779 27.0101C34.3687 27.0147 35.2479 27.0101 36.3408 28.2022C37.1994 28.115 38.0983 28.0709 38.9962 28.0709C39.8942 28.0709 40.7931 28.115 41.6517 28.2022C42.7455 27.0101 43.6238 27.0101 44.6146 27.0101H44.6193C45.0879 27.0101 46.9626 27.0101 48.2664 30.6795L49.6677 35.7155C50.7072 39.4628 49.3349 39.5566 47.6271 39.5566C45.0889 39.4628 43.6829 37.6168 43.6829 35.7699C42.2769 36.0054 40.6356 36.1179 38.9962 36.1179C37.3569 36.1179 35.7156 36.0054 34.3143 35.7699C34.3143 37.6168 32.9083 39.4628 30.3701 39.5566C28.6566 39.5519 27.2844 39.4628 28.3239 35.7155L29.7252 30.6795C31.0337 27.0101 32.9083 27.0101 33.377 27.0101H33.3779ZM38.9972 29.8972C38.9925 29.8972 36.3268 32.3547 35.844 33.2242L37.5912 33.1558V34.68C37.5912 34.7541 38.2951 34.7241 38.9972 34.6903C39.6992 34.7241 40.3985 34.7541 40.3985 34.68V33.1558L42.1503 33.2242C41.6676 32.3547 38.9972 29.8972 38.9972 29.8972Z" fill="url(#paint1_linear_2002_2)"/>
<g filter="url(#filter1_d_2002_2)">
<path d="M77.3711 29.2246C77.3711 30.8327 77.0781 32.1771 76.4922 33.2578C75.9062 34.332 75.0566 35.1426 73.9434 35.6895C72.8366 36.2298 71.4922 36.5 69.9102 36.5H66.0332V22.2227H70.3398C71.7917 22.2227 73.0417 22.4896 74.0898 23.0234C75.138 23.5508 75.9453 24.3353 76.5117 25.377C77.0846 26.4121 77.3711 27.6947 77.3711 29.2246ZM75.623 29.2832C75.623 28.0007 75.4082 26.9427 74.9785 26.1094C74.5553 25.276 73.9303 24.6576 73.1035 24.2539C72.2832 23.8438 71.2773 23.6387 70.0859 23.6387H67.6934V35.0742H69.7148C71.681 35.0742 73.1556 34.5892 74.1387 33.6191C75.1283 32.6491 75.623 31.2038 75.623 29.2832ZM89.5293 31.1289C89.5293 32.0078 89.4154 32.7923 89.1875 33.4824C88.9596 34.1725 88.6309 34.7552 88.2012 35.2305C87.7715 35.7057 87.2507 36.0703 86.6387 36.3242C86.0332 36.5716 85.3464 36.6953 84.5781 36.6953C83.862 36.6953 83.2044 36.5716 82.6055 36.3242C82.013 36.0703 81.4987 35.7057 81.0625 35.2305C80.6328 34.7552 80.2975 34.1725 80.0566 33.4824C79.8223 32.7923 79.7051 32.0078 79.7051 31.1289C79.7051 29.957 79.9036 28.9609 80.3008 28.1406C80.6979 27.3138 81.2643 26.6855 82 26.2559C82.7422 25.8197 83.6243 25.6016 84.6465 25.6016C85.623 25.6016 86.4759 25.8197 87.2051 26.2559C87.9408 26.6921 88.5104 27.3236 88.9141 28.1504C89.3242 28.9707 89.5293 29.9635 89.5293 31.1289ZM81.3848 31.1289C81.3848 31.9883 81.4987 32.7337 81.7266 33.3652C81.9544 33.9967 82.306 34.485 82.7812 34.8301C83.2565 35.1751 83.8685 35.3477 84.6172 35.3477C85.3594 35.3477 85.9681 35.1751 86.4434 34.8301C86.9251 34.485 87.2799 33.9967 87.5078 33.3652C87.7357 32.7337 87.8496 31.9883 87.8496 31.1289C87.8496 30.276 87.7357 29.5404 87.5078 28.9219C87.2799 28.2969 86.9284 27.8151 86.4531 27.4766C85.9779 27.138 85.3626 26.9688 84.6074 26.9688C83.4941 26.9688 82.6771 27.3366 82.1562 28.0723C81.6419 28.8079 81.3848 29.8268 81.3848 31.1289ZM101.043 36.4805L99.1387 30.25C99.054 29.9831 98.9727 29.7227 98.8945 29.4688C98.8229 29.2083 98.7546 28.9609 98.6895 28.7266C98.6309 28.4857 98.5755 28.2643 98.5234 28.0625C98.4779 27.8542 98.4388 27.6751 98.4062 27.5254H98.3379C98.3118 27.6751 98.276 27.8542 98.2305 28.0625C98.1849 28.2643 98.1296 28.4857 98.0645 28.7266C98.0059 28.9674 97.9408 29.2214 97.8691 29.4883C97.7975 29.7487 97.7161 30.0124 97.625 30.2793L95.6328 36.4805H93.8066L90.8574 25.7773H92.5371L94.0801 31.6855C94.1842 32.0762 94.2819 32.4635 94.373 32.8477C94.4707 33.2253 94.5521 33.5833 94.6172 33.9219C94.6888 34.2539 94.7409 34.5436 94.7734 34.791H94.8516C94.8906 34.6283 94.9329 34.4329 94.9785 34.2051C95.0306 33.9772 95.0859 33.7363 95.1445 33.4824C95.2096 33.222 95.278 32.9648 95.3496 32.7109C95.4212 32.4505 95.4928 32.2064 95.5645 31.9785L97.5371 25.7773H99.2852L101.189 31.9688C101.287 32.2812 101.382 32.6068 101.473 32.9453C101.57 33.2839 101.658 33.6126 101.736 33.9316C101.814 34.2441 101.87 34.5241 101.902 34.7715H101.98C102.007 34.5501 102.055 34.2767 102.127 33.9512C102.199 33.6257 102.28 33.2676 102.371 32.877C102.469 32.4863 102.57 32.0892 102.674 31.6855L104.236 25.7773H105.887L102.928 36.4805H101.043ZM112.908 25.6016C114.178 25.6016 115.138 25.9141 115.789 26.5391C116.44 27.1576 116.766 28.1536 116.766 29.5273V36.5H115.164V29.6348C115.164 28.7428 114.959 28.0755 114.549 27.6328C114.145 27.1901 113.523 26.9688 112.684 26.9688C111.499 26.9688 110.665 27.304 110.184 27.9746C109.702 28.6452 109.461 29.6185 109.461 30.8945V36.5H107.84V25.7969H109.148L109.393 27.3398H109.48C109.708 26.9622 109.998 26.6465 110.35 26.3926C110.701 26.1322 111.095 25.9368 111.531 25.8066C111.967 25.6699 112.426 25.6016 112.908 25.6016ZM121.736 36.5H120.105V21.3047H121.736V36.5ZM134.393 31.1289C134.393 32.0078 134.279 32.7923 134.051 33.4824C133.823 34.1725 133.494 34.7552 133.064 35.2305C132.635 35.7057 132.114 36.0703 131.502 36.3242C130.896 36.5716 130.21 36.6953 129.441 36.6953C128.725 36.6953 128.068 36.5716 127.469 36.3242C126.876 36.0703 126.362 35.7057 125.926 35.2305C125.496 34.7552 125.161 34.1725 124.92 33.4824C124.686 32.7923 124.568 32.0078 124.568 31.1289C124.568 29.957 124.767 28.9609 125.164 28.1406C125.561 27.3138 126.128 26.6855 126.863 26.2559C127.605 25.8197 128.488 25.6016 129.51 25.6016C130.486 25.6016 131.339 25.8197 132.068 26.2559C132.804 26.6921 133.374 27.3236 133.777 28.1504C134.188 28.9707 134.393 29.9635 134.393 31.1289ZM126.248 31.1289C126.248 31.9883 126.362 32.7337 126.59 33.3652C126.818 33.9967 127.169 34.485 127.645 34.8301C128.12 35.1751 128.732 35.3477 129.48 35.3477C130.223 35.3477 130.831 35.1751 131.307 34.8301C131.788 34.485 132.143 33.9967 132.371 33.3652C132.599 32.7337 132.713 31.9883 132.713 31.1289C132.713 30.276 132.599 29.5404 132.371 28.9219C132.143 28.2969 131.792 27.8151 131.316 27.4766C130.841 27.138 130.226 26.9688 129.471 26.9688C128.357 26.9688 127.54 27.3366 127.02 28.0723C126.505 28.8079 126.248 29.8268 126.248 31.1289ZM141.199 25.6211C142.475 25.6211 143.423 25.9076 144.041 26.4805C144.66 27.0534 144.969 27.9681 144.969 29.2246V36.5H143.787L143.475 34.918H143.396C143.097 35.3086 142.785 35.6374 142.459 35.9043C142.133 36.1647 141.756 36.3633 141.326 36.5C140.903 36.6302 140.382 36.6953 139.764 36.6953C139.113 36.6953 138.533 36.5814 138.025 36.3535C137.524 36.1257 137.127 35.7806 136.834 35.3184C136.548 34.8561 136.404 34.2702 136.404 33.5605C136.404 32.4928 136.827 31.6725 137.674 31.0996C138.52 30.5267 139.809 30.2142 141.541 30.1621L143.387 30.084V29.4297C143.387 28.5052 143.188 27.8574 142.791 27.4863C142.394 27.1152 141.834 26.9297 141.111 26.9297C140.551 26.9297 140.018 27.0111 139.51 27.1738C139.002 27.3366 138.52 27.5286 138.064 27.75L137.566 26.5195C138.048 26.2721 138.602 26.0605 139.227 25.8848C139.852 25.709 140.509 25.6211 141.199 25.6211ZM143.367 31.2266L141.736 31.2949C140.402 31.347 139.461 31.5651 138.914 31.9492C138.367 32.3333 138.094 32.877 138.094 33.5801C138.094 34.1921 138.279 34.6445 138.65 34.9375C139.021 35.2305 139.513 35.377 140.125 35.377C141.076 35.377 141.854 35.1133 142.459 34.5859C143.064 34.0586 143.367 33.2676 143.367 32.2129V31.2266ZM152.117 36.6953C150.763 36.6953 149.689 36.2331 148.895 35.3086C148.107 34.3841 147.713 33.0104 147.713 31.1875C147.713 29.3451 148.117 27.9551 148.924 27.0176C149.731 26.0736 150.805 25.6016 152.146 25.6016C152.713 25.6016 153.208 25.6764 153.631 25.8262C154.054 25.9759 154.419 26.1777 154.725 26.4316C155.031 26.679 155.288 26.9622 155.496 27.2812H155.613C155.587 27.0794 155.561 26.8027 155.535 26.4512C155.509 26.0996 155.496 25.8132 155.496 25.5918V21.3047H157.117V36.5H155.809L155.564 34.9766H155.496C155.294 35.2956 155.037 35.5853 154.725 35.8457C154.419 36.1061 154.051 36.3145 153.621 36.4707C153.198 36.6204 152.697 36.6953 152.117 36.6953ZM152.371 35.3477C153.517 35.3477 154.327 35.0221 154.803 34.3711C155.278 33.7201 155.516 32.7533 155.516 31.4707V31.1777C155.516 29.8171 155.288 28.7721 154.832 28.043C154.383 27.3138 153.562 26.9492 152.371 26.9492C151.375 26.9492 150.63 27.3333 150.135 28.1016C149.64 28.8633 149.393 29.9049 149.393 31.2266C149.393 32.5417 149.637 33.5573 150.125 34.2734C150.62 34.9896 151.368 35.3477 152.371 35.3477ZM174.979 31.1289C174.979 32.0078 174.865 32.7923 174.637 33.4824C174.409 34.1725 174.08 34.7552 173.65 35.2305C173.221 35.7057 172.7 36.0703 172.088 36.3242C171.482 36.5716 170.796 36.6953 170.027 36.6953C169.311 36.6953 168.654 36.5716 168.055 36.3242C167.462 36.0703 166.948 35.7057 166.512 35.2305C166.082 34.7552 165.747 34.1725 165.506 33.4824C165.271 32.7923 165.154 32.0078 165.154 31.1289C165.154 29.957 165.353 28.9609 165.75 28.1406C166.147 27.3138 166.714 26.6855 167.449 26.2559C168.191 25.8197 169.074 25.6016 170.096 25.6016C171.072 25.6016 171.925 25.8197 172.654 26.2559C173.39 26.6921 173.96 27.3236 174.363 28.1504C174.773 28.9707 174.979 29.9635 174.979 31.1289ZM166.834 31.1289C166.834 31.9883 166.948 32.7337 167.176 33.3652C167.404 33.9967 167.755 34.485 168.23 34.8301C168.706 35.1751 169.318 35.3477 170.066 35.3477C170.809 35.3477 171.417 35.1751 171.893 34.8301C172.374 34.485 172.729 33.9967 172.957 33.3652C173.185 32.7337 173.299 31.9883 173.299 31.1289C173.299 30.276 173.185 29.5404 172.957 28.9219C172.729 28.2969 172.378 27.8151 171.902 27.4766C171.427 27.138 170.812 26.9688 170.057 26.9688C168.943 26.9688 168.126 27.3366 167.605 28.0723C167.091 28.8079 166.834 29.8268 166.834 31.1289ZM182.85 25.6016C184.119 25.6016 185.079 25.9141 185.73 26.5391C186.382 27.1576 186.707 28.1536 186.707 29.5273V36.5H185.105V29.6348C185.105 28.7428 184.9 28.0755 184.49 27.6328C184.087 27.1901 183.465 26.9688 182.625 26.9688C181.44 26.9688 180.607 27.304 180.125 27.9746C179.643 28.6452 179.402 29.6185 179.402 30.8945V36.5H177.781V25.7969H179.09L179.334 27.3398H179.422C179.65 26.9622 179.939 26.6465 180.291 26.3926C180.643 26.1322 181.036 25.9368 181.473 25.8066C181.909 25.6699 182.368 25.6016 182.85 25.6016ZM196.863 25.7969V36.5H195.242V25.7969H196.863ZM196.072 21.793C196.339 21.793 196.567 21.8809 196.756 22.0566C196.951 22.2259 197.049 22.4928 197.049 22.8574C197.049 23.2155 196.951 23.4824 196.756 23.6582C196.567 23.834 196.339 23.9219 196.072 23.9219C195.792 23.9219 195.558 23.834 195.369 23.6582C195.187 23.4824 195.096 23.2155 195.096 22.8574C195.096 22.4928 195.187 22.2259 195.369 22.0566C195.558 21.8809 195.792 21.793 196.072 21.793ZM203.758 35.3672C204.025 35.3672 204.298 35.3444 204.578 35.2988C204.858 35.2533 205.086 35.1979 205.262 35.1328V36.3926C205.073 36.4772 204.809 36.5488 204.471 36.6074C204.139 36.666 203.813 36.6953 203.494 36.6953C202.928 36.6953 202.413 36.5977 201.951 36.4023C201.489 36.2005 201.118 35.862 200.838 35.3867C200.564 34.9115 200.428 34.2539 200.428 33.4141V27.0664H198.904V26.2754L200.438 25.6406L201.082 23.3164H202.059V25.7969H205.193V27.0664H202.059V33.3652C202.059 34.0358 202.212 34.5371 202.518 34.8691C202.83 35.2012 203.243 35.3672 203.758 35.3672ZM211.717 36.6953C210.753 36.6953 209.904 36.4967 209.168 36.0996C208.432 35.7025 207.859 35.097 207.449 34.2832C207.039 33.4694 206.834 32.444 206.834 31.207C206.834 29.9115 207.049 28.8535 207.479 28.0332C207.915 27.2064 208.514 26.5944 209.275 26.1973C210.037 25.8001 210.903 25.6016 211.873 25.6016C212.407 25.6016 212.921 25.6569 213.416 25.7676C213.917 25.8717 214.327 26.0052 214.646 26.168L214.158 27.5254C213.833 27.3952 213.455 27.278 213.025 27.1738C212.602 27.0697 212.205 27.0176 211.834 27.0176C211.092 27.0176 210.473 27.1771 209.979 27.4961C209.49 27.8151 209.122 28.2839 208.875 28.9023C208.634 29.5208 208.514 30.2826 208.514 31.1875C208.514 32.0534 208.631 32.7923 208.865 33.4043C209.106 34.0163 209.461 34.485 209.93 34.8105C210.405 35.1296 210.997 35.2891 211.707 35.2891C212.273 35.2891 212.785 35.2305 213.24 35.1133C213.696 34.9896 214.109 34.8464 214.48 34.6836V36.1289C214.122 36.3112 213.722 36.4512 213.279 36.5488C212.843 36.6465 212.322 36.6953 211.717 36.6953ZM218.641 21.3047V25.8457C218.641 26.1061 218.634 26.3698 218.621 26.6367C218.608 26.8971 218.585 27.138 218.553 27.3594H218.66C218.882 26.9818 219.161 26.666 219.5 26.4121C219.845 26.1517 220.236 25.9564 220.672 25.8262C221.108 25.6895 221.57 25.6211 222.059 25.6211C222.918 25.6211 223.634 25.7578 224.207 26.0312C224.786 26.3047 225.219 26.7279 225.506 27.3008C225.799 27.8737 225.945 28.6159 225.945 29.5273V36.5H224.344V29.6348C224.344 28.7428 224.139 28.0755 223.729 27.6328C223.325 27.1901 222.703 26.9688 221.863 26.9688C221.069 26.9688 220.434 27.1217 219.959 27.4277C219.49 27.7272 219.152 28.1699 218.943 28.7559C218.742 29.3418 218.641 30.0579 218.641 30.9043V36.5H217.02V21.3047H218.641ZM229.041 35.4844C229.041 35.0286 229.152 34.7064 229.373 34.5176C229.594 34.3223 229.865 34.2246 230.184 34.2246C230.516 34.2246 230.796 34.3223 231.023 34.5176C231.251 34.7064 231.365 35.0286 231.365 35.4844C231.365 35.9336 231.251 36.2624 231.023 36.4707C230.796 36.6725 230.516 36.7734 230.184 36.7734C229.865 36.7734 229.594 36.6725 229.373 36.4707C229.152 36.2624 229.041 35.9336 229.041 35.4844ZM236.16 25.7969V36.5H234.539V25.7969H236.16ZM235.369 21.793C235.636 21.793 235.864 21.8809 236.053 22.0566C236.248 22.2259 236.346 22.4928 236.346 22.8574C236.346 23.2155 236.248 23.4824 236.053 23.6582C235.864 23.834 235.636 23.9219 235.369 23.9219C235.089 23.9219 234.855 23.834 234.666 23.6582C234.484 23.4824 234.393 23.2155 234.393 22.8574C234.393 22.4928 234.484 22.2259 234.666 22.0566C234.855 21.8809 235.089 21.793 235.369 21.793ZM248.826 31.1289C248.826 32.0078 248.712 32.7923 248.484 33.4824C248.257 34.1725 247.928 34.7552 247.498 35.2305C247.068 35.7057 246.548 36.0703 245.936 36.3242C245.33 36.5716 244.643 36.6953 243.875 36.6953C243.159 36.6953 242.501 36.5716 241.902 36.3242C241.31 36.0703 240.796 35.7057 240.359 35.2305C239.93 34.7552 239.594 34.1725 239.354 33.4824C239.119 32.7923 239.002 32.0078 239.002 31.1289C239.002 29.957 239.201 28.9609 239.598 28.1406C239.995 27.3138 240.561 26.6855 241.297 26.2559C242.039 25.8197 242.921 25.6016 243.943 25.6016C244.92 25.6016 245.773 25.8197 246.502 26.2559C247.238 26.6921 247.807 27.3236 248.211 28.1504C248.621 28.9707 248.826 29.9635 248.826 31.1289ZM240.682 31.1289C240.682 31.9883 240.796 32.7337 241.023 33.3652C241.251 33.9967 241.603 34.485 242.078 34.8301C242.553 35.1751 243.165 35.3477 243.914 35.3477C244.656 35.3477 245.265 35.1751 245.74 34.8301C246.222 34.485 246.577 33.9967 246.805 33.3652C247.033 32.7337 247.146 31.9883 247.146 31.1289C247.146 30.276 247.033 29.5404 246.805 28.9219C246.577 28.2969 246.225 27.8151 245.75 27.4766C245.275 27.138 244.66 26.9688 243.904 26.9688C242.791 26.9688 241.974 27.3366 241.453 28.0723C240.939 28.8079 240.682 29.8268 240.682 31.1289Z" fill="#CCAB6E"/>
<path d="M77.3711 29.2246C77.3711 30.8327 77.0781 32.1771 76.4922 33.2578C75.9062 34.332 75.0566 35.1426 73.9434 35.6895C72.8366 36.2298 71.4922 36.5 69.9102 36.5H66.0332V22.2227H70.3398C71.7917 22.2227 73.0417 22.4896 74.0898 23.0234C75.138 23.5508 75.9453 24.3353 76.5117 25.377C77.0846 26.4121 77.3711 27.6947 77.3711 29.2246ZM75.623 29.2832C75.623 28.0007 75.4082 26.9427 74.9785 26.1094C74.5553 25.276 73.9303 24.6576 73.1035 24.2539C72.2832 23.8438 71.2773 23.6387 70.0859 23.6387H67.6934V35.0742H69.7148C71.681 35.0742 73.1556 34.5892 74.1387 33.6191C75.1283 32.6491 75.623 31.2038 75.623 29.2832ZM89.5293 31.1289C89.5293 32.0078 89.4154 32.7923 89.1875 33.4824C88.9596 34.1725 88.6309 34.7552 88.2012 35.2305C87.7715 35.7057 87.2507 36.0703 86.6387 36.3242C86.0332 36.5716 85.3464 36.6953 84.5781 36.6953C83.862 36.6953 83.2044 36.5716 82.6055 36.3242C82.013 36.0703 81.4987 35.7057 81.0625 35.2305C80.6328 34.7552 80.2975 34.1725 80.0566 33.4824C79.8223 32.7923 79.7051 32.0078 79.7051 31.1289C79.7051 29.957 79.9036 28.9609 80.3008 28.1406C80.6979 27.3138 81.2643 26.6855 82 26.2559C82.7422 25.8197 83.6243 25.6016 84.6465 25.6016C85.623 25.6016 86.4759 25.8197 87.2051 26.2559C87.9408 26.6921 88.5104 27.3236 88.9141 28.1504C89.3242 28.9707 89.5293 29.9635 89.5293 31.1289ZM81.3848 31.1289C81.3848 31.9883 81.4987 32.7337 81.7266 33.3652C81.9544 33.9967 82.306 34.485 82.7812 34.8301C83.2565 35.1751 83.8685 35.3477 84.6172 35.3477C85.3594 35.3477 85.9681 35.1751 86.4434 34.8301C86.9251 34.485 87.2799 33.9967 87.5078 33.3652C87.7357 32.7337 87.8496 31.9883 87.8496 31.1289C87.8496 30.276 87.7357 29.5404 87.5078 28.9219C87.2799 28.2969 86.9284 27.8151 86.4531 27.4766C85.9779 27.138 85.3626 26.9688 84.6074 26.9688C83.4941 26.9688 82.6771 27.3366 82.1562 28.0723C81.6419 28.8079 81.3848 29.8268 81.3848 31.1289ZM101.043 36.4805L99.1387 30.25C99.054 29.9831 98.9727 29.7227 98.8945 29.4688C98.8229 29.2083 98.7546 28.9609 98.6895 28.7266C98.6309 28.4857 98.5755 28.2643 98.5234 28.0625C98.4779 27.8542 98.4388 27.6751 98.4062 27.5254H98.3379C98.3118 27.6751 98.276 27.8542 98.2305 28.0625C98.1849 28.2643 98.1296 28.4857 98.0645 28.7266C98.0059 28.9674 97.9408 29.2214 97.8691 29.4883C97.7975 29.7487 97.7161 30.0124 97.625 30.2793L95.6328 36.4805H93.8066L90.8574 25.7773H92.5371L94.0801 31.6855C94.1842 32.0762 94.2819 32.4635 94.373 32.8477C94.4707 33.2253 94.5521 33.5833 94.6172 33.9219C94.6888 34.2539 94.7409 34.5436 94.7734 34.791H94.8516C94.8906 34.6283 94.9329 34.4329 94.9785 34.2051C95.0306 33.9772 95.0859 33.7363 95.1445 33.4824C95.2096 33.222 95.278 32.9648 95.3496 32.7109C95.4212 32.4505 95.4928 32.2064 95.5645 31.9785L97.5371 25.7773H99.2852L101.189 31.9688C101.287 32.2812 101.382 32.6068 101.473 32.9453C101.57 33.2839 101.658 33.6126 101.736 33.9316C101.814 34.2441 101.87 34.5241 101.902 34.7715H101.98C102.007 34.5501 102.055 34.2767 102.127 33.9512C102.199 33.6257 102.28 33.2676 102.371 32.877C102.469 32.4863 102.57 32.0892 102.674 31.6855L104.236 25.7773H105.887L102.928 36.4805H101.043ZM112.908 25.6016C114.178 25.6016 115.138 25.9141 115.789 26.5391C116.44 27.1576 116.766 28.1536 116.766 29.5273V36.5H115.164V29.6348C115.164 28.7428 114.959 28.0755 114.549 27.6328C114.145 27.1901 113.523 26.9688 112.684 26.9688C111.499 26.9688 110.665 27.304 110.184 27.9746C109.702 28.6452 109.461 29.6185 109.461 30.8945V36.5H107.84V25.7969H109.148L109.393 27.3398H109.48C109.708 26.9622 109.998 26.6465 110.35 26.3926C110.701 26.1322 111.095 25.9368 111.531 25.8066C111.967 25.6699 112.426 25.6016 112.908 25.6016ZM121.736 36.5H120.105V21.3047H121.736V36.5ZM134.393 31.1289C134.393 32.0078 134.279 32.7923 134.051 33.4824C133.823 34.1725 133.494 34.7552 133.064 35.2305C132.635 35.7057 132.114 36.0703 131.502 36.3242C130.896 36.5716 130.21 36.6953 129.441 36.6953C128.725 36.6953 128.068 36.5716 127.469 36.3242C126.876 36.0703 126.362 35.7057 125.926 35.2305C125.496 34.7552 125.161 34.1725 124.92 33.4824C124.686 32.7923 124.568 32.0078 124.568 31.1289C124.568 29.957 124.767 28.9609 125.164 28.1406C125.561 27.3138 126.128 26.6855 126.863 26.2559C127.605 25.8197 128.488 25.6016 129.51 25.6016C130.486 25.6016 131.339 25.8197 132.068 26.2559C132.804 26.6921 133.374 27.3236 133.777 28.1504C134.188 28.9707 134.393 29.9635 134.393 31.1289ZM126.248 31.1289C126.248 31.9883 126.362 32.7337 126.59 33.3652C126.818 33.9967 127.169 34.485 127.645 34.8301C128.12 35.1751 128.732 35.3477 129.48 35.3477C130.223 35.3477 130.831 35.1751 131.307 34.8301C131.788 34.485 132.143 33.9967 132.371 33.3652C132.599 32.7337 132.713 31.9883 132.713 31.1289C132.713 30.276 132.599 29.5404 132.371 28.9219C132.143 28.2969 131.792 27.8151 131.316 27.4766C130.841 27.138 130.226 26.9688 129.471 26.9688C128.357 26.9688 127.54 27.3366 127.02 28.0723C126.505 28.8079 126.248 29.8268 126.248 31.1289ZM141.199 25.6211C142.475 25.6211 143.423 25.9076 144.041 26.4805C144.66 27.0534 144.969 27.9681 144.969 29.2246V36.5H143.787L143.475 34.918H143.396C143.097 35.3086 142.785 35.6374 142.459 35.9043C142.133 36.1647 141.756 36.3633 141.326 36.5C140.903 36.6302 140.382 36.6953 139.764 36.6953C139.113 36.6953 138.533 36.5814 138.025 36.3535C137.524 36.1257 137.127 35.7806 136.834 35.3184C136.548 34.8561 136.404 34.2702 136.404 33.5605C136.404 32.4928 136.827 31.6725 137.674 31.0996C138.52 30.5267 139.809 30.2142 141.541 30.1621L143.387 30.084V29.4297C143.387 28.5052 143.188 27.8574 142.791 27.4863C142.394 27.1152 141.834 26.9297 141.111 26.9297C140.551 26.9297 140.018 27.0111 139.51 27.1738C139.002 27.3366 138.52 27.5286 138.064 27.75L137.566 26.5195C138.048 26.2721 138.602 26.0605 139.227 25.8848C139.852 25.709 140.509 25.6211 141.199 25.6211ZM143.367 31.2266L141.736 31.2949C140.402 31.347 139.461 31.5651 138.914 31.9492C138.367 32.3333 138.094 32.877 138.094 33.5801C138.094 34.1921 138.279 34.6445 138.65 34.9375C139.021 35.2305 139.513 35.377 140.125 35.377C141.076 35.377 141.854 35.1133 142.459 34.5859C143.064 34.0586 143.367 33.2676 143.367 32.2129V31.2266ZM152.117 36.6953C150.763 36.6953 149.689 36.2331 148.895 35.3086C148.107 34.3841 147.713 33.0104 147.713 31.1875C147.713 29.3451 148.117 27.9551 148.924 27.0176C149.731 26.0736 150.805 25.6016 152.146 25.6016C152.713 25.6016 153.208 25.6764 153.631 25.8262C154.054 25.9759 154.419 26.1777 154.725 26.4316C155.031 26.679 155.288 26.9622 155.496 27.2812H155.613C155.587 27.0794 155.561 26.8027 155.535 26.4512C155.509 26.0996 155.496 25.8132 155.496 25.5918V21.3047H157.117V36.5H155.809L155.564 34.9766H155.496C155.294 35.2956 155.037 35.5853 154.725 35.8457C154.419 36.1061 154.051 36.3145 153.621 36.4707C153.198 36.6204 152.697 36.6953 152.117 36.6953ZM152.371 35.3477C153.517 35.3477 154.327 35.0221 154.803 34.3711C155.278 33.7201 155.516 32.7533 155.516 31.4707V31.1777C155.516 29.8171 155.288 28.7721 154.832 28.043C154.383 27.3138 153.562 26.9492 152.371 26.9492C151.375 26.9492 150.63 27.3333 150.135 28.1016C149.64 28.8633 149.393 29.9049 149.393 31.2266C149.393 32.5417 149.637 33.5573 150.125 34.2734C150.62 34.9896 151.368 35.3477 152.371 35.3477ZM174.979 31.1289C174.979 32.0078 174.865 32.7923 174.637 33.4824C174.409 34.1725 174.08 34.7552 173.65 35.2305C173.221 35.7057 172.7 36.0703 172.088 36.3242C171.482 36.5716 170.796 36.6953 170.027 36.6953C169.311 36.6953 168.654 36.5716 168.055 36.3242C167.462 36.0703 166.948 35.7057 166.512 35.2305C166.082 34.7552 165.747 34.1725 165.506 33.4824C165.271 32.7923 165.154 32.0078 165.154 31.1289C165.154 29.957 165.353 28.9609 165.75 28.1406C166.147 27.3138 166.714 26.6855 167.449 26.2559C168.191 25.8197 169.074 25.6016 170.096 25.6016C171.072 25.6016 171.925 25.8197 172.654 26.2559C173.39 26.6921 173.96 27.3236 174.363 28.1504C174.773 28.9707 174.979 29.9635 174.979 31.1289ZM166.834 31.1289C166.834 31.9883 166.948 32.7337 167.176 33.3652C167.404 33.9967 167.755 34.485 168.23 34.8301C168.706 35.1751 169.318 35.3477 170.066 35.3477C170.809 35.3477 171.417 35.1751 171.893 34.8301C172.374 34.485 172.729 33.9967 172.957 33.3652C173.185 32.7337 173.299 31.9883 173.299 31.1289C173.299 30.276 173.185 29.5404 172.957 28.9219C172.729 28.2969 172.378 27.8151 171.902 27.4766C171.427 27.138 170.812 26.9688 170.057 26.9688C168.943 26.9688 168.126 27.3366 167.605 28.0723C167.091 28.8079 166.834 29.8268 166.834 31.1289ZM182.85 25.6016C184.119 25.6016 185.079 25.9141 185.73 26.5391C186.382 27.1576 186.707 28.1536 186.707 29.5273V36.5H185.105V29.6348C185.105 28.7428 184.9 28.0755 184.49 27.6328C184.087 27.1901 183.465 26.9688 182.625 26.9688C181.44 26.9688 180.607 27.304 180.125 27.9746C179.643 28.6452 179.402 29.6185 179.402 30.8945V36.5H177.781V25.7969H179.09L179.334 27.3398H179.422C179.65 26.9622 179.939 26.6465 180.291 26.3926C180.643 26.1322 181.036 25.9368 181.473 25.8066C181.909 25.6699 182.368 25.6016 182.85 25.6016ZM196.863 25.7969V36.5H195.242V25.7969H196.863ZM196.072 21.793C196.339 21.793 196.567 21.8809 196.756 22.0566C196.951 22.2259 197.049 22.4928 197.049 22.8574C197.049 23.2155 196.951 23.4824 196.756 23.6582C196.567 23.834 196.339 23.9219 196.072 23.9219C195.792 23.9219 195.558 23.834 195.369 23.6582C195.187 23.4824 195.096 23.2155 195.096 22.8574C195.096 22.4928 195.187 22.2259 195.369 22.0566C195.558 21.8809 195.792 21.793 196.072 21.793ZM203.758 35.3672C204.025 35.3672 204.298 35.3444 204.578 35.2988C204.858 35.2533 205.086 35.1979 205.262 35.1328V36.3926C205.073 36.4772 204.809 36.5488 204.471 36.6074C204.139 36.666 203.813 36.6953 203.494 36.6953C202.928 36.6953 202.413 36.5977 201.951 36.4023C201.489 36.2005 201.118 35.862 200.838 35.3867C200.564 34.9115 200.428 34.2539 200.428 33.4141V27.0664H198.904V26.2754L200.438 25.6406L201.082 23.3164H202.059V25.7969H205.193V27.0664H202.059V33.3652C202.059 34.0358 202.212 34.5371 202.518 34.8691C202.83 35.2012 203.243 35.3672 203.758 35.3672ZM211.717 36.6953C210.753 36.6953 209.904 36.4967 209.168 36.0996C208.432 35.7025 207.859 35.097 207.449 34.2832C207.039 33.4694 206.834 32.444 206.834 31.207C206.834 29.9115 207.049 28.8535 207.479 28.0332C207.915 27.2064 208.514 26.5944 209.275 26.1973C210.037 25.8001 210.903 25.6016 211.873 25.6016C212.407 25.6016 212.921 25.6569 213.416 25.7676C213.917 25.8717 214.327 26.0052 214.646 26.168L214.158 27.5254C213.833 27.3952 213.455 27.278 213.025 27.1738C212.602 27.0697 212.205 27.0176 211.834 27.0176C211.092 27.0176 210.473 27.1771 209.979 27.4961C209.49 27.8151 209.122 28.2839 208.875 28.9023C208.634 29.5208 208.514 30.2826 208.514 31.1875C208.514 32.0534 208.631 32.7923 208.865 33.4043C209.106 34.0163 209.461 34.485 209.93 34.8105C210.405 35.1296 210.997 35.2891 211.707 35.2891C212.273 35.2891 212.785 35.2305 213.24 35.1133C213.696 34.9896 214.109 34.8464 214.48 34.6836V36.1289C214.122 36.3112 213.722 36.4512 213.279 36.5488C212.843 36.6465 212.322 36.6953 211.717 36.6953ZM218.641 21.3047V25.8457C218.641 26.1061 218.634 26.3698 218.621 26.6367C218.608 26.8971 218.585 27.138 218.553 27.3594H218.66C218.882 26.9818 219.161 26.666 219.5 26.4121C219.845 26.1517 220.236 25.9564 220.672 25.8262C221.108 25.6895 221.57 25.6211 222.059 25.6211C222.918 25.6211 223.634 25.7578 224.207 26.0312C224.786 26.3047 225.219 26.7279 225.506 27.3008C225.799 27.8737 225.945 28.6159 225.945 29.5273V36.5H224.344V29.6348C224.344 28.7428 224.139 28.0755 223.729 27.6328C223.325 27.1901 222.703 26.9688 221.863 26.9688C221.069 26.9688 220.434 27.1217 219.959 27.4277C219.49 27.7272 219.152 28.1699 218.943 28.7559C218.742 29.3418 218.641 30.0579 218.641 30.9043V36.5H217.02V21.3047H218.641ZM229.041 35.4844C229.041 35.0286 229.152 34.7064 229.373 34.5176C229.594 34.3223 229.865 34.2246 230.184 34.2246C230.516 34.2246 230.796 34.3223 231.023 34.5176C231.251 34.7064 231.365 35.0286 231.365 35.4844C231.365 35.9336 231.251 36.2624 231.023 36.4707C230.796 36.6725 230.516 36.7734 230.184 36.7734C229.865 36.7734 229.594 36.6725 229.373 36.4707C229.152 36.2624 229.041 35.9336 229.041 35.4844ZM236.16 25.7969V36.5H234.539V25.7969H236.16ZM235.369 21.793C235.636 21.793 235.864 21.8809 236.053 22.0566C236.248 22.2259 236.346 22.4928 236.346 22.8574C236.346 23.2155 236.248 23.4824 236.053 23.6582C235.864 23.834 235.636 23.9219 235.369 23.9219C235.089 23.9219 234.855 23.834 234.666 23.6582C234.484 23.4824 234.393 23.2155 234.393 22.8574C234.393 22.4928 234.484 22.2259 234.666 22.0566C234.855 21.8809 235.089 21.793 235.369 21.793ZM248.826 31.1289C248.826 32.0078 248.712 32.7923 248.484 33.4824C248.257 34.1725 247.928 34.7552 247.498 35.2305C247.068 35.7057 246.548 36.0703 245.936 36.3242C245.33 36.5716 244.643 36.6953 243.875 36.6953C243.159 36.6953 242.501 36.5716 241.902 36.3242C241.31 36.0703 240.796 35.7057 240.359 35.2305C239.93 34.7552 239.594 34.1725 239.354 33.4824C239.119 32.7923 239.002 32.0078 239.002 31.1289C239.002 29.957 239.201 28.9609 239.598 28.1406C239.995 27.3138 240.561 26.6855 241.297 26.2559C242.039 25.8197 242.921 25.6016 243.943 25.6016C244.92 25.6016 245.773 25.8197 246.502 26.2559C247.238 26.6921 247.807 27.3236 248.211 28.1504C248.621 28.9707 248.826 29.9635 248.826 31.1289ZM240.682 31.1289C240.682 31.9883 240.796 32.7337 241.023 33.3652C241.251 33.9967 241.603 34.485 242.078 34.8301C242.553 35.1751 243.165 35.3477 243.914 35.3477C244.656 35.3477 245.265 35.1751 245.74 34.8301C246.222 34.485 246.577 33.9967 246.805 33.3652C247.033 32.7337 247.146 31.9883 247.146 31.1289C247.146 30.276 247.033 29.5404 246.805 28.9219C246.577 28.2969 246.225 27.8151 245.75 27.4766C245.275 27.138 244.66 26.9688 243.904 26.9688C242.791 26.9688 241.974 27.3366 241.453 28.0723C240.939 28.8079 240.682 29.8268 240.682 31.1289Z" fill="url(#paint2_linear_2002_2)"/>
</g>
</g>
<defs>
<filter id="filter0_di_2002_2" x="0" y="0" width="274" height="58" filterUnits="userSpaceOnUse" color-interpolation-filters="sRGB">
<feFlood flood-opacity="0" result="BackgroundImageFix"/>
<feColorMatrix in="SourceAlpha" type="matrix" values="0 0 0 0 0 0 0 0 0 0 0 0 0 0 0 0 0 0 127 0" result="hardAlpha"/>
<feOffset/>
<feGaussianBlur stdDeviation="2"/>
<feComposite in2="hardAlpha" operator="out"/>
<feColorMatrix type="matrix" values="0 0 0 0 0.798077 0 0 0 0 0.669157 0 0 0 0 0.429734 0 0 0 1 0"/>
<feBlend mode="normal" in2="BackgroundImageFix" result="effect1_dropShadow_2002_2"/>
<feBlend mode="normal" in="SourceGraphic" in2="effect1_dropShadow_2002_2" result="shape"/>
<feColorMatrix in="SourceAlpha" type="matrix" values="0 0 0 0 0 0 0 0 0 0 0 0 0 0 0 0 0 0 127 0" result="hardAlpha"/>
<feMorphology radius="7" operator="erode" in="SourceAlpha" result="effect2_innerShadow_2002_2"/>
<feOffset/>
<feGaussianBlur stdDeviation="7.5"/>
<feComposite in2="hardAlpha" operator="arithmetic" k2="-1" k3="1"/>
<feColorMatrix type="matrix" values="0 0 0 0 0.392157 0 0 0 0 0.203922 0 0 0 0 0.203922 0 0 0 1 0"/>
<feBlend mode="normal" in2="shape" result="effect2_innerShadow_2002_2"/>
</filter>
<filter id="filter1_d_2002_2" x="66.0332" y="21.3047" width="183.793" height="16.4688" filterUnits="userSpaceOnUse" color-interpolation-filters="sRGB">
<feFlood flood-opacity="0" result="BackgroundImageFix"/>
<feColorMatrix in="SourceAlpha" type="matrix" values="0 0 0 0 0 0 0 0 0 0 0 0 0 0 0 0 0 0 127 0" result="hardAlpha"/>
<feOffset dx="1" dy="1"/>
<feComposite in2="hardAlpha" operator="out"/>
<feColorMatrix type="matrix" values="0 0 0 0 0 0 0 0 0 0 0 0 0 0 0 0 0 0 1 0"/>
<feBlend mode="normal" in2="BackgroundImageFix" result="effect1_dropShadow_2002_2"/>
<feBlend mode="normal" in="SourceGraphic" in2="effect1_dropShadow_2002_2" result="shape"/>
</filter>
<radialGradient id="paint0_radial_2002_2" cx="0" cy="0" r="1" gradientUnits="userSpaceOnUse" gradientTransform="translate(137 29) rotate(180) scale(133 25)">
<stop/>
<stop offset="1" stop-color="#551A1A"/>
</radialGradient>
<linearGradient id="paint1_linear_2002_2" x1="39" y1="42.5" x2="39" y2="15.5" gradientUnits="userSpaceOnUse">
<stop stop-color="#E5CEA2"/>
<stop offset="1" stop-color="#976C3F"/>
</linearGradient>
<linearGradient id="paint2_linear_2002_2" x1="157" y1="42.5" x2="157" y2="15.5" gradientUnits="userSpaceOnUse">
<stop stop-color="#E5CEA2"/>
<stop offset="1" stop-color="#976C3F"/>
</linearGradient>
</defs>
</svg>
