<svg width="274" height="58" viewBox="0 0 274 58" fill="none" xmlns="http://www.w3.org/2000/svg">
<g filter="url(#filter0_di_2001_3)">
<rect x="4" y="4" width="266" height="50" fill="url(#paint0_radial_2001_3)"/>
<rect x="4" y="4" width="266" height="50" fill="black"/>
<rect x="4.5" y="4.5" width="265" height="49" stroke="#976C3F"/>
<g filter="url(#filter1_d_2001_3)">
<path d="M31.4936 17H35.0936C36.8136 17 38.2036 17.25 39.2636 17.75C40.3436 18.25 41.1436 18.94 41.6636 19.82C42.2036 20.68 42.4936 21.66 42.5336 22.76C42.5736 23.78 42.4036 24.71 42.0236 25.55C41.6436 26.39 41.1236 27.09 40.4636 27.65C39.8036 28.21 39.0436 28.62 38.1836 28.88C37.3436 29.12 36.4636 29.18 35.5436 29.06C34.6436 28.92 33.7636 28.57 32.9036 28.01V27.71C32.9036 27.71 33.0236 27.71 33.2636 27.71C33.5236 27.71 33.8436 27.67 34.2236 27.59C34.6236 27.51 35.0336 27.36 35.4536 27.14C35.8936 26.92 36.3036 26.58 36.6836 26.12C37.0636 25.66 37.3536 25.05 37.5536 24.29C37.6336 24.03 37.6836 23.74 37.7036 23.42C37.7436 23.08 37.7536 22.77 37.7336 22.49C37.7136 21.21 37.3636 20.19 36.6836 19.43C36.0236 18.65 35.0836 18.26 33.8636 18.26H31.7936C31.7936 18.26 31.7636 18.16 31.7036 17.96C31.6636 17.74 31.6136 17.53 31.5536 17.33C31.5136 17.11 31.4936 17 31.4936 17ZM31.8836 17V38H27.3836V17H31.8836ZM27.4736 35.81V38H25.0736V37.7C25.0936 37.7 25.1536 37.7 25.2536 37.7C25.3736 37.7 25.4436 37.7 25.4636 37.7C25.9836 37.7 26.4236 37.52 26.7836 37.16C27.1636 36.78 27.3636 36.33 27.3836 35.81H27.4736ZM27.4736 19.19H27.3836C27.3836 18.67 27.1936 18.23 26.8136 17.87C26.4336 17.49 25.9836 17.3 25.4636 17.3C25.4436 17.3 25.3836 17.3 25.2836 17.3C25.1836 17.3 25.1236 17.3 25.1036 17.3L25.0736 17H27.4736V19.19ZM31.7936 35.81H31.8836C31.9036 36.33 32.0936 36.78 32.4536 37.16C32.8336 37.52 33.2836 37.7 33.8036 37.7C33.8236 37.7 33.8836 37.7 33.9836 37.7C34.1036 37.7 34.1736 37.7 34.1936 37.7V38H31.7936V35.81ZM53.6439 20V38H49.3239V20H53.6439ZM60.6339 36.8L61.3539 38H53.5839V36.8H60.6339ZM62.6139 32.48L61.4439 38H56.2539L57.1839 36.8C58.0439 36.8 58.8039 36.63 59.4639 36.29C60.1439 35.93 60.7239 35.43 61.2039 34.79C61.6839 34.13 62.0539 33.36 62.3139 32.48H62.6139ZM49.3839 36.11L49.5339 38H47.3139V37.7C47.3139 37.7 47.3739 37.7 47.4939 37.7C47.6139 37.7 47.6839 37.7 47.7039 37.7C48.1439 37.7 48.5139 37.55 48.8139 37.25C49.1339 36.93 49.3039 36.55 49.3239 36.11H49.3839ZM53.5839 21.89V20H55.6539V20.3C55.6339 20.3 55.5639 20.3 55.4439 20.3C55.3439 20.3 55.2939 20.3 55.2939 20.3C54.8539 20.3 54.4739 20.45 54.1539 20.75C53.8339 21.05 53.6639 21.43 53.6439 21.89H53.5839ZM49.3839 21.89H49.3239C49.3039 21.43 49.1339 21.05 48.8139 20.75C48.4939 20.45 48.1139 20.3 47.6739 20.3C47.6539 20.3 47.5839 20.3 47.4639 20.3C47.3639 20.3 47.3139 20.3 47.3139 20.3V20H49.3839V21.89ZM75.8854 19.19L84.7654 37.85H79.6954L74.1154 24.68L75.8854 19.19ZM70.2454 36.02C70.0254 36.56 70.0554 36.98 70.3354 37.28C70.6154 37.56 70.9254 37.7 71.2654 37.7H71.5054V38H65.5054V37.7C65.5054 37.7 65.5454 37.7 65.6254 37.7C65.7054 37.7 65.7454 37.7 65.7454 37.7C66.1454 37.7 66.5654 37.58 67.0054 37.34C67.4454 37.08 67.8054 36.64 68.0854 36.02H70.2454ZM75.8854 19.19L75.9454 22.79L69.4354 37.91H67.2154L74.2354 22.82C74.2754 22.7 74.3654 22.49 74.5054 22.19C74.6454 21.87 74.7954 21.52 74.9554 21.14C75.1154 20.74 75.2654 20.37 75.4054 20.03C75.5454 19.67 75.6254 19.39 75.6454 19.19H75.8854ZM78.4954 32.12V33.29H70.8454V32.12H78.4954ZM78.9454 36.02H83.8954C84.1954 36.64 84.5654 37.08 85.0054 37.34C85.4454 37.58 85.8654 37.7 86.2654 37.7C86.2654 37.7 86.3054 37.7 86.3854 37.7C86.4654 37.7 86.5054 37.7 86.5054 37.7V38H77.6854V37.7H77.9254C78.2654 37.7 78.5754 37.56 78.8554 37.28C79.1354 36.98 79.1654 36.56 78.9454 36.02ZM92.1583 20.03L97.7983 29.78L93.8083 30.23L87.2383 20.03H92.1583ZM97.9783 29.84V38H93.6583V29.9L97.9783 29.84ZM102.238 20.03H104.458L97.6783 30.44L96.2683 30.17L102.238 20.03ZM101.158 21.86C101.378 21.48 101.378 21.13 101.158 20.81C100.938 20.47 100.638 20.3 100.258 20.3C100.258 20.3 100.198 20.3 100.078 20.3C99.9583 20.3 99.8983 20.3 99.8983 20.3V20H106.348V20.3H105.958C105.418 20.3 104.908 20.45 104.428 20.75C103.968 21.03 103.598 21.37 103.318 21.77L101.158 21.86ZM93.2083 21.86L88.3483 21.77C88.0683 21.35 87.6983 21 87.2383 20.72C86.7783 20.44 86.2683 20.3 85.7083 20.3H85.3483V20H94.4683V20.3C94.4683 20.3 94.4083 20.3 94.2883 20.3C94.1883 20.3 94.1383 20.3 94.1383 20.3C93.7383 20.3 93.4283 20.47 93.2083 20.81C93.0083 21.15 93.0083 21.5 93.2083 21.86ZM93.7483 36.11V38H91.6183V37.7C91.6383 37.7 91.6983 37.7 91.7983 37.7C91.9183 37.7 91.9783 37.7 91.9783 37.7C92.4383 37.7 92.8283 37.55 93.1483 37.25C93.4683 36.93 93.6383 36.55 93.6583 36.11H93.7483ZM97.9183 36.11H97.9783C97.9983 36.55 98.1683 36.93 98.4883 37.25C98.8283 37.55 99.2183 37.7 99.6583 37.7C99.6583 37.7 99.7183 37.7 99.8383 37.7C99.9583 37.7 100.018 37.7 100.018 37.7V38H97.9183V36.11ZM132.111 16.58C134.511 16.58 136.591 17.03 138.351 17.93C140.131 18.81 141.501 20.06 142.461 21.68C143.441 23.3 143.931 25.24 143.931 27.5C143.931 29.74 143.441 31.68 142.461 33.32C141.501 34.94 140.131 36.2 138.351 37.1C136.591 37.98 134.511 38.42 132.111 38.42C129.711 38.42 127.621 37.98 125.841 37.1C124.081 36.2 122.721 34.94 121.761 33.32C120.801 31.7 120.321 29.76 120.321 27.5C120.321 25.26 120.801 23.33 121.761 21.71C122.721 20.07 124.081 18.81 125.841 17.93C127.621 17.03 129.711 16.58 132.111 16.58ZM132.111 37.16C133.531 37.16 134.751 36.77 135.771 35.99C136.791 35.19 137.581 34.07 138.141 32.63C138.701 31.19 138.981 29.48 138.981 27.5C138.981 25.52 138.701 23.81 138.141 22.37C137.581 20.93 136.791 19.82 135.771 19.04C134.751 18.24 133.531 17.84 132.111 17.84C130.711 17.84 129.491 18.24 128.451 19.04C127.431 19.82 126.641 20.93 126.081 22.37C125.521 23.81 125.241 25.52 125.241 27.5C125.241 29.48 125.521 31.19 126.081 32.63C126.641 34.07 127.431 35.19 128.451 35.99C129.491 36.77 130.711 37.16 132.111 37.16ZM150.596 19.58L168.206 35.06L168.506 38.39L150.926 22.91L150.596 19.58ZM150.716 36.17V38H148.496V37.7C148.496 37.7 148.576 37.7 148.736 37.7C148.896 37.7 148.976 37.7 148.976 37.7C149.436 37.7 149.826 37.56 150.146 37.28C150.466 36.98 150.626 36.61 150.626 36.17H150.716ZM154.736 36.17C154.756 36.61 154.926 36.98 155.246 37.28C155.566 37.56 155.946 37.7 156.386 37.7C156.386 37.7 156.466 37.7 156.626 37.7C156.806 37.7 156.896 37.7 156.896 37.7V38H154.676V36.17H154.736ZM150.596 19.58L154.736 24.08V38H150.626V23C150.626 21.98 150.576 21.16 150.476 20.54C150.376 19.9 150.326 19.58 150.326 19.58H150.596ZM168.476 20V34.88C168.476 35.58 168.496 36.2 168.536 36.74C168.596 37.26 168.646 37.67 168.686 37.97C168.746 38.25 168.776 38.39 168.776 38.39H168.506L164.366 33.62V20H168.476ZM168.386 21.83V20H170.636V20.3C170.636 20.3 170.546 20.3 170.366 20.3C170.206 20.3 170.126 20.3 170.126 20.3C169.686 20.3 169.296 20.45 168.956 20.75C168.636 21.03 168.476 21.39 168.476 21.83H168.386ZM164.366 21.83C164.346 21.39 164.176 21.03 163.856 20.75C163.556 20.45 163.176 20.3 162.716 20.3C162.716 20.3 162.626 20.3 162.446 20.3C162.286 20.3 162.206 20.3 162.206 20.3V20H164.426V21.83H164.366ZM181.595 20V38H177.275V20H181.595ZM188.585 36.8L189.305 38H181.535V36.8H188.585ZM190.565 32.48L189.395 38H184.205L185.135 36.8C185.995 36.8 186.755 36.63 187.415 36.29C188.095 35.93 188.675 35.43 189.155 34.79C189.635 34.13 190.005 33.36 190.265 32.48H190.565ZM177.335 36.11L177.485 38H175.265V37.7C175.265 37.7 175.325 37.7 175.445 37.7C175.565 37.7 175.635 37.7 175.655 37.7C176.095 37.7 176.465 37.55 176.765 37.25C177.085 36.93 177.255 36.55 177.275 36.11H177.335ZM181.535 21.89V20H183.605V20.3C183.585 20.3 183.515 20.3 183.395 20.3C183.295 20.3 183.245 20.3 183.245 20.3C182.805 20.3 182.425 20.45 182.105 20.75C181.785 21.05 181.615 21.43 181.595 21.89H181.535ZM177.335 21.89H177.275C177.255 21.43 177.085 21.05 176.765 20.75C176.445 20.45 176.065 20.3 175.625 20.3C175.605 20.3 175.535 20.3 175.415 20.3C175.315 20.3 175.265 20.3 175.265 20.3V20H177.335V21.89ZM200.857 20V38H196.537V20H200.857ZM196.627 36.11V38H194.437V37.7C194.437 37.7 194.497 37.7 194.617 37.7C194.737 37.7 194.807 37.7 194.827 37.7C195.287 37.7 195.687 37.55 196.027 37.25C196.367 36.93 196.537 36.55 196.537 36.11H196.627ZM200.797 36.11H200.857C200.877 36.55 201.047 36.93 201.367 37.25C201.707 37.55 202.117 37.7 202.597 37.7C202.597 37.7 202.647 37.7 202.747 37.7C202.867 37.7 202.937 37.7 202.957 37.7V38H200.797V36.11ZM200.797 21.89V20H202.957L202.927 20.3C202.927 20.3 202.877 20.3 202.777 20.3C202.677 20.3 202.617 20.3 202.597 20.3C202.117 20.3 201.707 20.45 201.367 20.75C201.047 21.05 200.877 21.43 200.857 21.89H200.797ZM196.627 21.89H196.537C196.537 21.43 196.367 21.05 196.027 20.75C195.687 20.45 195.277 20.3 194.797 20.3C194.797 20.3 194.737 20.3 194.617 20.3C194.497 20.3 194.437 20.3 194.437 20.3V20H196.627V21.89ZM209.694 19.58L227.304 35.06L227.604 38.39L210.024 22.91L209.694 19.58ZM209.814 36.17V38H207.594V37.7C207.594 37.7 207.674 37.7 207.834 37.7C207.994 37.7 208.074 37.7 208.074 37.7C208.534 37.7 208.924 37.56 209.244 37.28C209.564 36.98 209.724 36.61 209.724 36.17H209.814ZM213.834 36.17C213.854 36.61 214.024 36.98 214.344 37.28C214.664 37.56 215.044 37.7 215.484 37.7C215.484 37.7 215.564 37.7 215.724 37.7C215.904 37.7 215.994 37.7 215.994 37.7V38H213.774V36.17H213.834ZM209.694 19.58L213.834 24.08V38H209.724V23C209.724 21.98 209.674 21.16 209.574 20.54C209.474 19.9 209.424 19.58 209.424 19.58H209.694ZM227.574 20V34.88C227.574 35.58 227.594 36.2 227.634 36.74C227.694 37.26 227.744 37.67 227.784 37.97C227.844 38.25 227.874 38.39 227.874 38.39H227.604L223.464 33.62V20H227.574ZM227.484 21.83V20H229.734V20.3C229.734 20.3 229.644 20.3 229.464 20.3C229.304 20.3 229.224 20.3 229.224 20.3C228.784 20.3 228.394 20.45 228.054 20.75C227.734 21.03 227.574 21.39 227.574 21.83H227.484ZM223.464 21.83C223.444 21.39 223.274 21.03 222.954 20.75C222.654 20.45 222.274 20.3 221.814 20.3C221.814 20.3 221.724 20.3 221.544 20.3C221.384 20.3 221.304 20.3 221.304 20.3V20H223.524V21.83H223.464ZM240.693 20V38H236.373V20H240.693ZM247.713 36.8L248.403 38H240.633V36.8H247.713ZM246.693 28.49V29.69H240.633V28.49H246.693ZM248.043 20V21.2H240.633V20H248.043ZM249.633 32.48L248.493 38H243.303L244.233 36.8C245.093 36.8 245.853 36.63 246.513 36.29C247.193 35.93 247.773 35.43 248.253 34.79C248.733 34.13 249.103 33.36 249.363 32.48H249.633ZM246.693 29.63V32.27H246.393V32.03C246.393 31.37 246.183 30.82 245.763 30.38C245.363 29.94 244.813 29.71 244.113 29.69V29.63H246.693ZM246.693 25.91V28.55H244.113V28.49C244.813 28.47 245.363 28.24 245.763 27.8C246.183 27.34 246.393 26.78 246.393 26.12V25.91H246.693ZM248.043 21.14V24.32H247.743V24.05C247.743 23.17 247.503 22.48 247.023 21.98C246.563 21.48 245.893 21.22 245.013 21.2V21.14H248.043ZM248.043 19.55V20.27L244.893 20C245.473 20 246.083 19.95 246.723 19.85C247.363 19.73 247.803 19.63 248.043 19.55ZM236.433 36.11L236.583 38H234.363V37.7C234.363 37.7 234.423 37.7 234.543 37.7C234.663 37.7 234.733 37.7 234.753 37.7C235.193 37.7 235.563 37.55 235.863 37.25C236.183 36.93 236.353 36.55 236.373 36.11H236.433ZM236.433 21.89H236.373C236.353 21.43 236.183 21.05 235.863 20.75C235.563 20.45 235.193 20.3 234.753 20.3C234.733 20.3 234.663 20.3 234.543 20.3C234.423 20.3 234.363 20.3 234.363 20.3V20H236.583L236.433 21.89Z" fill="#CCAB6E"/>
<path d="M31.4936 17H35.0936C36.8136 17 38.2036 17.25 39.2636 17.75C40.3436 18.25 41.1436 18.94 41.6636 19.82C42.2036 20.68 42.4936 21.66 42.5336 22.76C42.5736 23.78 42.4036 24.71 42.0236 25.55C41.6436 26.39 41.1236 27.09 40.4636 27.65C39.8036 28.21 39.0436 28.62 38.1836 28.88C37.3436 29.12 36.4636 29.18 35.5436 29.06C34.6436 28.92 33.7636 28.57 32.9036 28.01V27.71C32.9036 27.71 33.0236 27.71 33.2636 27.71C33.5236 27.71 33.8436 27.67 34.2236 27.59C34.6236 27.51 35.0336 27.36 35.4536 27.14C35.8936 26.92 36.3036 26.58 36.6836 26.12C37.0636 25.66 37.3536 25.05 37.5536 24.29C37.6336 24.03 37.6836 23.74 37.7036 23.42C37.7436 23.08 37.7536 22.77 37.7336 22.49C37.7136 21.21 37.3636 20.19 36.6836 19.43C36.0236 18.65 35.0836 18.26 33.8636 18.26H31.7936C31.7936 18.26 31.7636 18.16 31.7036 17.96C31.6636 17.74 31.6136 17.53 31.5536 17.33C31.5136 17.11 31.4936 17 31.4936 17ZM31.8836 17V38H27.3836V17H31.8836ZM27.4736 35.81V38H25.0736V37.7C25.0936 37.7 25.1536 37.7 25.2536 37.7C25.3736 37.7 25.4436 37.7 25.4636 37.7C25.9836 37.7 26.4236 37.52 26.7836 37.16C27.1636 36.78 27.3636 36.33 27.3836 35.81H27.4736ZM27.4736 19.19H27.3836C27.3836 18.67 27.1936 18.23 26.8136 17.87C26.4336 17.49 25.9836 17.3 25.4636 17.3C25.4436 17.3 25.3836 17.3 25.2836 17.3C25.1836 17.3 25.1236 17.3 25.1036 17.3L25.0736 17H27.4736V19.19ZM31.7936 35.81H31.8836C31.9036 36.33 32.0936 36.78 32.4536 37.16C32.8336 37.52 33.2836 37.7 33.8036 37.7C33.8236 37.7 33.8836 37.7 33.9836 37.7C34.1036 37.7 34.1736 37.7 34.1936 37.7V38H31.7936V35.81ZM53.6439 20V38H49.3239V20H53.6439ZM60.6339 36.8L61.3539 38H53.5839V36.8H60.6339ZM62.6139 32.48L61.4439 38H56.2539L57.1839 36.8C58.0439 36.8 58.8039 36.63 59.4639 36.29C60.1439 35.93 60.7239 35.43 61.2039 34.79C61.6839 34.13 62.0539 33.36 62.3139 32.48H62.6139ZM49.3839 36.11L49.5339 38H47.3139V37.7C47.3139 37.7 47.3739 37.7 47.4939 37.7C47.6139 37.7 47.6839 37.7 47.7039 37.7C48.1439 37.7 48.5139 37.55 48.8139 37.25C49.1339 36.93 49.3039 36.55 49.3239 36.11H49.3839ZM53.5839 21.89V20H55.6539V20.3C55.6339 20.3 55.5639 20.3 55.4439 20.3C55.3439 20.3 55.2939 20.3 55.2939 20.3C54.8539 20.3 54.4739 20.45 54.1539 20.75C53.8339 21.05 53.6639 21.43 53.6439 21.89H53.5839ZM49.3839 21.89H49.3239C49.3039 21.43 49.1339 21.05 48.8139 20.75C48.4939 20.45 48.1139 20.3 47.6739 20.3C47.6539 20.3 47.5839 20.3 47.4639 20.3C47.3639 20.3 47.3139 20.3 47.3139 20.3V20H49.3839V21.89ZM75.8854 19.19L84.7654 37.85H79.6954L74.1154 24.68L75.8854 19.19ZM70.2454 36.02C70.0254 36.56 70.0554 36.98 70.3354 37.28C70.6154 37.56 70.9254 37.7 71.2654 37.7H71.5054V38H65.5054V37.7C65.5054 37.7 65.5454 37.7 65.6254 37.7C65.7054 37.7 65.7454 37.7 65.7454 37.7C66.1454 37.7 66.5654 37.58 67.0054 37.34C67.4454 37.08 67.8054 36.64 68.0854 36.02H70.2454ZM75.8854 19.19L75.9454 22.79L69.4354 37.91H67.2154L74.2354 22.82C74.2754 22.7 74.3654 22.49 74.5054 22.19C74.6454 21.87 74.7954 21.52 74.9554 21.14C75.1154 20.74 75.2654 20.37 75.4054 20.03C75.5454 19.67 75.6254 19.39 75.6454 19.19H75.8854ZM78.4954 32.12V33.29H70.8454V32.12H78.4954ZM78.9454 36.02H83.8954C84.1954 36.64 84.5654 37.08 85.0054 37.34C85.4454 37.58 85.8654 37.7 86.2654 37.7C86.2654 37.7 86.3054 37.7 86.3854 37.7C86.4654 37.7 86.5054 37.7 86.5054 37.7V38H77.6854V37.7H77.9254C78.2654 37.7 78.5754 37.56 78.8554 37.28C79.1354 36.98 79.1654 36.56 78.9454 36.02ZM92.1583 20.03L97.7983 29.78L93.8083 30.23L87.2383 20.03H92.1583ZM97.9783 29.84V38H93.6583V29.9L97.9783 29.84ZM102.238 20.03H104.458L97.6783 30.44L96.2683 30.17L102.238 20.03ZM101.158 21.86C101.378 21.48 101.378 21.13 101.158 20.81C100.938 20.47 100.638 20.3 100.258 20.3C100.258 20.3 100.198 20.3 100.078 20.3C99.9583 20.3 99.8983 20.3 99.8983 20.3V20H106.348V20.3H105.958C105.418 20.3 104.908 20.45 104.428 20.75C103.968 21.03 103.598 21.37 103.318 21.77L101.158 21.86ZM93.2083 21.86L88.3483 21.77C88.0683 21.35 87.6983 21 87.2383 20.72C86.7783 20.44 86.2683 20.3 85.7083 20.3H85.3483V20H94.4683V20.3C94.4683 20.3 94.4083 20.3 94.2883 20.3C94.1883 20.3 94.1383 20.3 94.1383 20.3C93.7383 20.3 93.4283 20.47 93.2083 20.81C93.0083 21.15 93.0083 21.5 93.2083 21.86ZM93.7483 36.11V38H91.6183V37.7C91.6383 37.7 91.6983 37.7 91.7983 37.7C91.9183 37.7 91.9783 37.7 91.9783 37.7C92.4383 37.7 92.8283 37.55 93.1483 37.25C93.4683 36.93 93.6383 36.55 93.6583 36.11H93.7483ZM97.9183 36.11H97.9783C97.9983 36.55 98.1683 36.93 98.4883 37.25C98.8283 37.55 99.2183 37.7 99.6583 37.7C99.6583 37.7 99.7183 37.7 99.8383 37.7C99.9583 37.7 100.018 37.7 100.018 37.7V38H97.9183V36.11ZM132.111 16.58C134.511 16.58 136.591 17.03 138.351 17.93C140.131 18.81 141.501 20.06 142.461 21.68C143.441 23.3 143.931 25.24 143.931 27.5C143.931 29.74 143.441 31.68 142.461 33.32C141.501 34.94 140.131 36.2 138.351 37.1C136.591 37.98 134.511 38.42 132.111 38.42C129.711 38.42 127.621 37.98 125.841 37.1C124.081 36.2 122.721 34.94 121.761 33.32C120.801 31.7 120.321 29.76 120.321 27.5C120.321 25.26 120.801 23.33 121.761 21.71C122.721 20.07 124.081 18.81 125.841 17.93C127.621 17.03 129.711 16.58 132.111 16.58ZM132.111 37.16C133.531 37.16 134.751 36.77 135.771 35.99C136.791 35.19 137.581 34.07 138.141 32.63C138.701 31.19 138.981 29.48 138.981 27.5C138.981 25.52 138.701 23.81 138.141 22.37C137.581 20.93 136.791 19.82 135.771 19.04C134.751 18.24 133.531 17.84 132.111 17.84C130.711 17.84 129.491 18.24 128.451 19.04C127.431 19.82 126.641 20.93 126.081 22.37C125.521 23.81 125.241 25.52 125.241 27.5C125.241 29.48 125.521 31.19 126.081 32.63C126.641 34.07 127.431 35.19 128.451 35.99C129.491 36.77 130.711 37.16 132.111 37.16ZM150.596 19.58L168.206 35.06L168.506 38.39L150.926 22.91L150.596 19.58ZM150.716 36.17V38H148.496V37.7C148.496 37.7 148.576 37.7 148.736 37.7C148.896 37.7 148.976 37.7 148.976 37.7C149.436 37.7 149.826 37.56 150.146 37.28C150.466 36.98 150.626 36.61 150.626 36.17H150.716ZM154.736 36.17C154.756 36.61 154.926 36.98 155.246 37.28C155.566 37.56 155.946 37.7 156.386 37.7C156.386 37.7 156.466 37.7 156.626 37.7C156.806 37.7 156.896 37.7 156.896 37.7V38H154.676V36.17H154.736ZM150.596 19.58L154.736 24.08V38H150.626V23C150.626 21.98 150.576 21.16 150.476 20.54C150.376 19.9 150.326 19.58 150.326 19.58H150.596ZM168.476 20V34.88C168.476 35.58 168.496 36.2 168.536 36.74C168.596 37.26 168.646 37.67 168.686 37.97C168.746 38.25 168.776 38.39 168.776 38.39H168.506L164.366 33.62V20H168.476ZM168.386 21.83V20H170.636V20.3C170.636 20.3 170.546 20.3 170.366 20.3C170.206 20.3 170.126 20.3 170.126 20.3C169.686 20.3 169.296 20.45 168.956 20.75C168.636 21.03 168.476 21.39 168.476 21.83H168.386ZM164.366 21.83C164.346 21.39 164.176 21.03 163.856 20.75C163.556 20.45 163.176 20.3 162.716 20.3C162.716 20.3 162.626 20.3 162.446 20.3C162.286 20.3 162.206 20.3 162.206 20.3V20H164.426V21.83H164.366ZM181.595 20V38H177.275V20H181.595ZM188.585 36.8L189.305 38H181.535V36.8H188.585ZM190.565 32.48L189.395 38H184.205L185.135 36.8C185.995 36.8 186.755 36.63 187.415 36.29C188.095 35.93 188.675 35.43 189.155 34.79C189.635 34.13 190.005 33.36 190.265 32.48H190.565ZM177.335 36.11L177.485 38H175.265V37.7C175.265 37.7 175.325 37.7 175.445 37.7C175.565 37.7 175.635 37.7 175.655 37.7C176.095 37.7 176.465 37.55 176.765 37.25C177.085 36.93 177.255 36.55 177.275 36.11H177.335ZM181.535 21.89V20H183.605V20.3C183.585 20.3 183.515 20.3 183.395 20.3C183.295 20.3 183.245 20.3 183.245 20.3C182.805 20.3 182.425 20.45 182.105 20.75C181.785 21.05 181.615 21.43 181.595 21.89H181.535ZM177.335 21.89H177.275C177.255 21.43 177.085 21.05 176.765 20.75C176.445 20.45 176.065 20.3 175.625 20.3C175.605 20.3 175.535 20.3 175.415 20.3C175.315 20.3 175.265 20.3 175.265 20.3V20H177.335V21.89ZM200.857 20V38H196.537V20H200.857ZM196.627 36.11V38H194.437V37.7C194.437 37.7 194.497 37.7 194.617 37.7C194.737 37.7 194.807 37.7 194.827 37.7C195.287 37.7 195.687 37.55 196.027 37.25C196.367 36.93 196.537 36.55 196.537 36.11H196.627ZM200.797 36.11H200.857C200.877 36.55 201.047 36.93 201.367 37.25C201.707 37.55 202.117 37.7 202.597 37.7C202.597 37.7 202.647 37.7 202.747 37.7C202.867 37.7 202.937 37.7 202.957 37.7V38H200.797V36.11ZM200.797 21.89V20H202.957L202.927 20.3C202.927 20.3 202.877 20.3 202.777 20.3C202.677 20.3 202.617 20.3 202.597 20.3C202.117 20.3 201.707 20.45 201.367 20.75C201.047 21.05 200.877 21.43 200.857 21.89H200.797ZM196.627 21.89H196.537C196.537 21.43 196.367 21.05 196.027 20.75C195.687 20.45 195.277 20.3 194.797 20.3C194.797 20.3 194.737 20.3 194.617 20.3C194.497 20.3 194.437 20.3 194.437 20.3V20H196.627V21.89ZM209.694 19.58L227.304 35.06L227.604 38.39L210.024 22.91L209.694 19.58ZM209.814 36.17V38H207.594V37.7C207.594 37.7 207.674 37.7 207.834 37.7C207.994 37.7 208.074 37.7 208.074 37.7C208.534 37.7 208.924 37.56 209.244 37.28C209.564 36.98 209.724 36.61 209.724 36.17H209.814ZM213.834 36.17C213.854 36.61 214.024 36.98 214.344 37.28C214.664 37.56 215.044 37.7 215.484 37.7C215.484 37.7 215.564 37.7 215.724 37.7C215.904 37.7 215.994 37.7 215.994 37.7V38H213.774V36.17H213.834ZM209.694 19.58L213.834 24.08V38H209.724V23C209.724 21.98 209.674 21.16 209.574 20.54C209.474 19.9 209.424 19.58 209.424 19.58H209.694ZM227.574 20V34.88C227.574 35.58 227.594 36.2 227.634 36.74C227.694 37.26 227.744 37.67 227.784 37.97C227.844 38.25 227.874 38.39 227.874 38.39H227.604L223.464 33.62V20H227.574ZM227.484 21.83V20H229.734V20.3C229.734 20.3 229.644 20.3 229.464 20.3C229.304 20.3 229.224 20.3 229.224 20.3C228.784 20.3 228.394 20.45 228.054 20.75C227.734 21.03 227.574 21.39 227.574 21.83H227.484ZM223.464 21.83C223.444 21.39 223.274 21.03 222.954 20.75C222.654 20.45 222.274 20.3 221.814 20.3C221.814 20.3 221.724 20.3 221.544 20.3C221.384 20.3 221.304 20.3 221.304 20.3V20H223.524V21.83H223.464ZM240.693 20V38H236.373V20H240.693ZM247.713 36.8L248.403 38H240.633V36.8H247.713ZM246.693 28.49V29.69H240.633V28.49H246.693ZM248.043 20V21.2H240.633V20H248.043ZM249.633 32.48L248.493 38H243.303L244.233 36.8C245.093 36.8 245.853 36.63 246.513 36.29C247.193 35.93 247.773 35.43 248.253 34.79C248.733 34.13 249.103 33.36 249.363 32.48H249.633ZM246.693 29.63V32.27H246.393V32.03C246.393 31.37 246.183 30.82 245.763 30.38C245.363 29.94 244.813 29.71 244.113 29.69V29.63H246.693ZM246.693 25.91V28.55H244.113V28.49C244.813 28.47 245.363 28.24 245.763 27.8C246.183 27.34 246.393 26.78 246.393 26.12V25.91H246.693ZM248.043 21.14V24.32H247.743V24.05C247.743 23.17 247.503 22.48 247.023 21.98C246.563 21.48 245.893 21.22 245.013 21.2V21.14H248.043ZM248.043 19.55V20.27L244.893 20C245.473 20 246.083 19.95 246.723 19.85C247.363 19.73 247.803 19.63 248.043 19.55ZM236.433 36.11L236.583 38H234.363V37.7C234.363 37.7 234.423 37.7 234.543 37.7C234.663 37.7 234.733 37.7 234.753 37.7C235.193 37.7 235.563 37.55 235.863 37.25C236.183 36.93 236.353 36.55 236.373 36.11H236.433ZM236.433 21.89H236.373C236.353 21.43 236.183 21.05 235.863 20.75C235.563 20.45 235.193 20.3 234.753 20.3C234.733 20.3 234.663 20.3 234.543 20.3C234.423 20.3 234.363 20.3 234.363 20.3V20H236.583L236.433 21.89Z" fill="url(#paint1_linear_2001_3)"/>
</g>
</g>
<defs>
<filter id="filter0_di_2001_3" x="0" y="0" width="274" height="58" filterUnits="userSpaceOnUse" color-interpolation-filters="sRGB">
<feFlood flood-opacity="0" result="BackgroundImageFix"/>
<feColorMatrix in="SourceAlpha" type="matrix" values="0 0 0 0 0 0 0 0 0 0 0 0 0 0 0 0 0 0 127 0" result="hardAlpha"/>
<feOffset/>
<feGaussianBlur stdDeviation="2"/>
<feComposite in2="hardAlpha" operator="out"/>
<feColorMatrix type="matrix" values="0 0 0 0 0.798077 0 0 0 0 0.669157 0 0 0 0 0.429734 0 0 0 1 0"/>
<feBlend mode="normal" in2="BackgroundImageFix" result="effect1_dropShadow_2001_3"/>
<feBlend mode="normal" in="SourceGraphic" in2="effect1_dropShadow_2001_3" result="shape"/>
<feColorMatrix in="SourceAlpha" type="matrix" values="0 0 0 0 0 0 0 0 0 0 0 0 0 0 0 0 0 0 127 0" result="hardAlpha"/>
<feMorphology radius="7" operator="erode" in="SourceAlpha" result="effect2_innerShadow_2001_3"/>
<feOffset/>
<feGaussianBlur stdDeviation="7.5"/>
<feComposite in2="hardAlpha" operator="arithmetic" k2="-1" k3="1"/>
<feColorMatrix type="matrix" values="0 0 0 0 0.392157 0 0 0 0 0.203922 0 0 0 0 0.203922 0 0 0 1 0"/>
<feBlend mode="normal" in2="shape" result="effect2_innerShadow_2001_3"/>
</filter>
<filter id="filter1_d_2001_3" x="25.0736" y="16.58" width="225.559" height="22.84" filterUnits="userSpaceOnUse" color-interpolation-filters="sRGB">
<feFlood flood-opacity="0" result="BackgroundImageFix"/>
<feColorMatrix in="SourceAlpha" type="matrix" values="0 0 0 0 0 0 0 0 0 0 0 0 0 0 0 0 0 0 127 0" result="hardAlpha"/>
<feOffset dx="1" dy="1"/>
<feComposite in2="hardAlpha" operator="out"/>
<feColorMatrix type="matrix" values="0 0 0 0 0 0 0 0 0 0 0 0 0 0 0 0 0 0 1 0"/>
<feBlend mode="normal" in2="BackgroundImageFix" result="effect1_dropShadow_2001_3"/>
<feBlend mode="normal" in="SourceGraphic" in2="effect1_dropShadow_2001_3" result="shape"/>
</filter>
<radialGradient id="paint0_radial_2001_3" cx="0" cy="0" r="1" gradientUnits="userSpaceOnUse" gradientTransform="translate(137 29) rotate(180) scale(133 25)">
<stop/>
<stop offset="1" stop-color="#551A1A"/>
</radialGradient>
<linearGradient id="paint1_linear_2001_3" x1="137" y1="49" x2="137" y2="9" gradientUnits="userSpaceOnUse">
<stop stop-color="#E5CEA2"/>
<stop offset="1" stop-color="#976C3F"/>
</linearGradient>
</defs>
</svg>
